<?xml version='1.0' encoding='UTF-8'?>
<!DOCTYPE svg PUBLIC "-//W3C//DTD SVG 1.1//EN" "http://www.w3.org/Graphics/SVG/1.1/DTD/svg11.dtd">
<!-- Generated by graphviz version 12.0.0 (20240704.0754)
 -->
<!-- Pages: 1 -->
<svg xmlns="http://www.w3.org/2000/svg" xmlns:xlink="http://www.w3.org/1999/xlink" width="394pt" height="341pt" viewBox="0.00 0.00 393.50 341.25">
  <style>
    @import url("https://fonts.googleapis.com/css?family=Roboto:400,400i,700,700i");
    </style>
  <g id="graph0" class="graph" transform="scale(1 1) rotate(0) translate(4 337.25)">
    <polygon fill="#eeeeee" stroke="none" points="-4,4 -4,-337.25 389.5,-337.25 389.5,4 -4,4"/>
    <!-- Work -->
    <g id="node1" class="table-hover">
      <title>Work</title>
      <g id="a_node1">
        <a xlink:href="http://Work_details.html" xlink:title="&lt;TABLE&gt;">
          <polygon fill="#3f51b5" stroke="none" points="8,-311.25 8,-329.25 181,-329.25 181,-311.25 8,-311.25"/>
          <polygon fill="none" stroke="black" points="8,-311.25 8,-329.25 181,-329.25 181,-311.25 8,-311.25"/>
          <text text-anchor="start" x="80.62" y="-314.85" font-family="Roboto" font-size="12.00" fill="white">Work</text>
          <polygon fill="#bbdefb" stroke="none" points="8,-293.25 8,-311.25 94,-311.25 94,-293.25 8,-293.25"/>
          <polygon fill="none" stroke="black" points="8,-293.25 8,-311.25 94,-311.25 94,-293.25 8,-293.25"/>
          <text text-anchor="start" x="46.12" y="-296.85" font-family="Roboto" font-size="12.00">id</text>
          <polygon fill="#bbdefb" stroke="none" points="94,-293.25 94,-311.25 181,-311.25 181,-293.25 94,-293.25"/>
          <polygon fill="none" stroke="black" points="94,-293.25 94,-311.25 181,-311.25 181,-293.25 94,-293.25"/>
          <text text-anchor="start" x="97" y="-296.85" font-family="Roboto" font-size="12.00">INTEGER (PK)</text>
          <polygon fill="#bbdefb" stroke="none" points="8,-275.25 8,-293.25 94,-293.25 94,-275.25 8,-275.25"/>
          <polygon fill="none" stroke="black" points="8,-275.25 8,-293.25 94,-293.25 94,-275.25 8,-275.25"/>
          <text text-anchor="start" x="18.38" y="-278.85" font-family="Roboto" font-size="12.00">original_title</text>
          <polygon fill="#bbdefb" stroke="none" points="94,-275.25 94,-293.25 181,-293.25 181,-275.25 94,-275.25"/>
          <polygon fill="none" stroke="black" points="94,-275.25 94,-293.25 181,-293.25 181,-275.25 94,-275.25"/>
          <text text-anchor="start" x="102.62" y="-278.85" font-family="Roboto" font-size="12.00">VARCHAR ()</text>
          <polygon fill="#bbdefb" stroke="none" points="8,-257.25 8,-275.25 94,-275.25 94,-257.25 8,-257.25"/>
          <polygon fill="none" stroke="black" points="8,-257.25 8,-275.25 94,-275.25 94,-257.25 8,-257.25"/>
          <text text-anchor="start" x="10.88" y="-260.85" font-family="Roboto" font-size="12.00">original_author</text>
          <polygon fill="#bbdefb" stroke="none" points="94,-257.25 94,-275.25 181,-275.25 181,-257.25 94,-257.25"/>
          <polygon fill="none" stroke="black" points="94,-257.25 94,-275.25 181,-275.25 181,-257.25 94,-257.25"/>
          <text text-anchor="start" x="102.62" y="-260.85" font-family="Roboto" font-size="12.00">VARCHAR ()</text>
        </a>
      </g>
    </g>
    <!-- WorkInstance -->
    <g id="node2" class="table-hover">
      <title>WorkInstance</title>
      <g id="a_node2">
        <a xlink:href="http://WorkInstance_details.html" xlink:title="&lt;TABLE&gt;">
          <polygon fill="#3f51b5" stroke="none" points="9,-184 9,-202 180,-202 180,-184 9,-184"/>
          <polygon fill="none" stroke="black" points="9,-184 9,-202 180,-202 180,-184 9,-184"/>
          <text text-anchor="start" x="58.12" y="-187.6" font-family="Roboto" font-size="12.00" fill="white">WorkInstance</text>
          <polygon fill="#bbdefb" stroke="none" points="9,-166 9,-184 93,-184 93,-166 9,-166"/>
          <polygon fill="none" stroke="black" points="9,-166 9,-184 93,-184 93,-166 9,-166"/>
          <text text-anchor="start" x="46.12" y="-169.6" font-family="Roboto" font-size="12.00">id</text>
          <polygon fill="#bbdefb" stroke="none" points="93,-166 93,-184 180,-184 180,-166 93,-166"/>
          <polygon fill="none" stroke="black" points="93,-166 93,-184 180,-184 180,-166 93,-166"/>
          <text text-anchor="start" x="96" y="-169.6" font-family="Roboto" font-size="12.00">INTEGER (PK)</text>
          <polygon fill="#bbdefb" stroke="none" points="9,-148 9,-166 93,-166 93,-148 9,-148"/>
          <polygon fill="none" stroke="black" points="9,-148 9,-166 93,-166 93,-148 9,-148"/>
          <text text-anchor="start" x="30" y="-151.6" font-family="Roboto" font-size="12.00">work_id</text>
          <polygon fill="#bbdefb" stroke="none" points="93,-148 93,-166 180,-166 180,-148 93,-148"/>
          <polygon fill="none" stroke="black" points="93,-148 93,-166 180,-166 180,-148 93,-148"/>
          <text text-anchor="start" x="104.25" y="-151.6" font-family="Roboto" font-size="12.00">INTEGER ()</text>
          <polygon fill="#bbdefb" stroke="none" points="9,-130 9,-148 93,-148 93,-130 9,-130"/>
          <polygon fill="none" stroke="black" points="9,-130 9,-148 93,-148 93,-130 9,-130"/>
          <text text-anchor="start" x="41.62" y="-133.6" font-family="Roboto" font-size="12.00">title</text>
          <polygon fill="#bbdefb" stroke="none" points="93,-130 93,-148 180,-148 180,-130 93,-130"/>
          <polygon fill="none" stroke="black" points="93,-130 93,-148 180,-148 180,-130 93,-130"/>
          <text text-anchor="start" x="101.62" y="-133.6" font-family="Roboto" font-size="12.00">VARCHAR ()</text>
          <polygon fill="#bbdefb" stroke="none" points="9,-112 9,-130 93,-130 93,-112 9,-112"/>
          <polygon fill="none" stroke="black" points="9,-112 9,-130 93,-130 93,-112 9,-112"/>
          <text text-anchor="start" x="34.12" y="-115.6" font-family="Roboto" font-size="12.00">author</text>
          <polygon fill="#bbdefb" stroke="none" points="93,-112 93,-130 180,-130 180,-112 93,-112"/>
          <polygon fill="none" stroke="black" points="93,-112 93,-130 180,-130 180,-112 93,-112"/>
          <text text-anchor="start" x="101.62" y="-115.6" font-family="Roboto" font-size="12.00">VARCHAR ()</text>
          <polygon fill="#bbdefb" stroke="none" points="9,-94 9,-112 93,-112 93,-94 9,-94"/>
          <polygon fill="none" stroke="black" points="9,-94 9,-112 93,-112 93,-94 9,-94"/>
          <text text-anchor="start" x="12" y="-97.6" font-family="Roboto" font-size="12.00">first_published</text>
          <polygon fill="#bbdefb" stroke="none" points="93,-94 93,-112 180,-112 180,-94 93,-94"/>
          <polygon fill="none" stroke="black" points="93,-94 93,-112 180,-112 180,-94 93,-94"/>
          <text text-anchor="start" x="101.62" y="-97.6" font-family="Roboto" font-size="12.00">VARCHAR ()</text>
          <polygon fill="#bbdefb" stroke="none" points="9,-76 9,-94 93,-94 93,-76 9,-76"/>
          <polygon fill="none" stroke="black" points="9,-76 9,-94 93,-94 93,-76 9,-76"/>
          <text text-anchor="start" x="19.88" y="-79.6" font-family="Roboto" font-size="12.00">relationship</text>
          <polygon fill="#bbdefb" stroke="none" points="93,-76 93,-94 180,-94 180,-76 93,-76"/>
          <polygon fill="none" stroke="black" points="93,-76 93,-94 180,-94 180,-76 93,-76"/>
          <text text-anchor="start" x="101.62" y="-79.6" font-family="Roboto" font-size="12.00">VARCHAR ()</text>
          <polygon fill="#bbdefb" stroke="none" points="9,-58 9,-76 93,-76 93,-58 9,-58"/>
          <polygon fill="none" stroke="black" points="9,-58 9,-76 93,-76 93,-58 9,-58"/>
          <text text-anchor="start" x="29.25" y="-61.6" font-family="Roboto" font-size="12.00">art_form</text>
          <polygon fill="#bbdefb" stroke="none" points="93,-58 93,-76 180,-76 180,-58 93,-58"/>
          <polygon fill="none" stroke="black" points="93,-58 93,-76 180,-76 180,-58 93,-58"/>
          <text text-anchor="start" x="101.62" y="-61.6" font-family="Roboto" font-size="12.00">VARCHAR ()</text>
          <polygon fill="#bbdefb" stroke="none" points="9,-40 9,-58 93,-58 93,-40 9,-40"/>
          <polygon fill="none" stroke="black" points="9,-40 9,-58 93,-58 93,-40 9,-40"/>
          <text text-anchor="start" x="35.62" y="-43.6" font-family="Roboto" font-size="12.00">genre</text>
          <polygon fill="#bbdefb" stroke="none" points="93,-40 93,-58 180,-58 180,-40 93,-40"/>
          <polygon fill="none" stroke="black" points="93,-40 93,-58 180,-58 180,-40 93,-40"/>
          <text text-anchor="start" x="101.62" y="-43.6" font-family="Roboto" font-size="12.00">VARCHAR ()</text>
          <polygon fill="#bbdefb" stroke="none" points="9,-22 9,-40 93,-40 93,-22 9,-22"/>
          <polygon fill="none" stroke="black" points="9,-22 9,-40 93,-40 93,-22 9,-22"/>
          <text text-anchor="start" x="22.5" y="-25.6" font-family="Roboto" font-size="12.00">sub_genre</text>
          <polygon fill="#bbdefb" stroke="none" points="93,-22 93,-40 180,-40 180,-22 93,-22"/>
          <polygon fill="none" stroke="black" points="93,-22 93,-40 180,-40 180,-22 93,-22"/>
          <text text-anchor="start" x="101.62" y="-25.6" font-family="Roboto" font-size="12.00">VARCHAR ()</text>
          <polygon fill="#bbdefb" stroke="none" points="9,-4 9,-22 93,-22 93,-4 9,-4"/>
          <polygon fill="none" stroke="black" points="9,-4 9,-22 93,-22 93,-4 9,-4"/>
          <text text-anchor="start" x="39.38" y="-7.6" font-family="Roboto" font-size="12.00">note</text>
          <polygon fill="#bbdefb" stroke="none" points="93,-4 93,-22 180,-22 180,-4 93,-4"/>
          <polygon fill="none" stroke="black" points="93,-4 93,-22 180,-22 180,-4 93,-4"/>
          <text text-anchor="start" x="101.62" y="-7.6" font-family="Roboto" font-size="12.00">VARCHAR ()</text>
        </a>
      </g>
    </g>
    <!-- Work&#45;&gt;WorkInstance -->
    <g id="edge1" class="edge-hover edge-from-None edge-to-None">
      <title>Work-&gt;WorkInstance</title>
      <g id="a_edge1">
        <a xlink:title="Relation between Work and WorkInstance">
          <path fill="none" stroke="#1e88e5" stroke-dasharray="5,2" d="M70.15,-253.43C67.41,-247.53 65.05,-241.36 63.5,-235.25 61.99,-229.29 61.11,-223.18 60.75,-217"/>
          <polygon fill="#1e88e5" stroke="#1e88e5" points="64.25,-217.31 60.66,-207.35 57.25,-217.38 64.25,-217.31"/>
        </a>
      </g>
      <text text-anchor="middle" x="84.5" y="-225.75" font-family="Roboto" font-size="10.00">instances</text>
    </g>
    <!-- WorkInstance&#45;&gt;Work -->
    <g id="edge2" class="edge-hover edge-from-None edge-to-None">
      <title>WorkInstance-&gt;Work</title>
      <g id="a_edge2">
        <a xlink:title="Relation between WorkInstance and Work">
          <path fill="none" stroke="#1e88e5" stroke-dasharray="5,2" d="M106.63,-205.77C106.73,-215.73 106.41,-225.69 105.5,-235.25 105.28,-237.56 105.01,-239.92 104.7,-242.3"/>
          <polygon fill="#1e88e5" stroke="#1e88e5" points="101.27,-241.55 103.24,-251.96 108.19,-242.59 101.27,-241.55"/>
        </a>
      </g>
      <text text-anchor="middle" x="116" y="-225.75" font-family="Roboto" font-size="10.00">work</text>
    </g>
    <!-- WorkInstance&#45;&gt;WorkInstance -->
    <g id="edge3" class="edge-hover edge-from-None edge-to-None">
      <title>WorkInstance-&gt;WorkInstance</title>
      <g id="a_edge3">
        <a xlink:title="Relation between WorkInstance and WorkInstance">
          <path fill="none" stroke="#1e88e5" stroke-dasharray="5,2" d="M187.63,-108.1C198.74,-107.17 206,-105.47 206,-103 206,-101.53 203.44,-100.34 199.03,-99.41"/>
          <polygon fill="#1e88e5" stroke="#1e88e5" points="199.5,-95.94 189.13,-98.1 198.58,-102.88 199.5,-95.94"/>
        </a>
      </g>
      <text text-anchor="middle" x="213.88" y="-99.12" font-family="Roboto" font-size="10.00">has</text>
    </g>
    <!-- WorkInstance&#45;&gt;WorkInstance -->
    <g id="edge4" class="edge-hover edge-from-None edge-to-None">
      <title>WorkInstance-&gt;WorkInstance</title>
      <g id="a_edge4">
        <a xlink:title="Relation between WorkInstance and WorkInstance">
          <path fill="none" stroke="#1e88e5" stroke-dasharray="5,2" d="M187.92,-114.57C208.78,-113.5 224,-109.65 224,-103 224,-97.6 213.95,-94.04 198.99,-92.33"/>
          <polygon fill="#1e88e5" stroke="#1e88e5" points="199.68,-88.87 189.43,-91.56 199.11,-95.85 199.68,-88.87"/>
        </a>
      </g>
      <text text-anchor="middle" x="231.5" y="-99.12" font-family="Roboto" font-size="10.00">link</text>
    </g>
    <!-- WorkInstance&#45;&gt;WorkInstance -->
    <g id="edge5" class="edge-hover edge-from-None edge-to-None">
      <title>WorkInstance-&gt;WorkInstance</title>
      <g id="a_edge5">
        <a xlink:title="Relation between WorkInstance and WorkInstance">
          <path fill="none" stroke="#1e88e5" stroke-dasharray="5,2" d="M187.77,-120.8C217.99,-120.67 242,-114.73 242,-103 242,-92.78 223.78,-86.96 199.11,-85.54"/>
          <polygon fill="#1e88e5" stroke="#1e88e5" points="199.38,-82.04 189.28,-85.24 199.17,-89.04 199.38,-82.04"/>
        </a>
      </g>
      <text text-anchor="middle" x="263.38" y="-99.12" font-family="Roboto" font-size="10.00">is_part_of</text>
    </g>
    <!-- WorkInstance&#45;&gt;WorkInstance -->
    <g id="edge6" class="edge-hover edge-from-None edge-to-None">
      <title>WorkInstance-&gt;WorkInstance</title>
      <g id="a_edge6">
        <a xlink:title="Relation between WorkInstance and WorkInstance">
          <path fill="none" stroke="#1e88e5" stroke-dasharray="5,2" d="M187.88,-125.98C237.75,-129.33 284.75,-121.67 284.75,-103 284.75,-85.75 244.64,-77.9 199.21,-79.45"/>
          <polygon fill="#1e88e5" stroke="#1e88e5" points="199.2,-75.95 189.39,-79.95 199.55,-82.94 199.2,-75.95"/>
        </a>
      </g>
      <text text-anchor="middle" x="297.5" y="-99.12" font-family="Roboto" font-size="10.00">linked</text>
    </g>
    <!-- WorkInstancesAssociation -->
    <g id="node3" class="table-hover">
      <title>WorkInstancesAssociation</title>
      <g id="a_node3">
        <a xlink:href="http://WorkInstancesAssociation_details.html" xlink:title="&lt;TABLE&gt;">
          <polygon fill="#3f51b5" stroke="none" points="215.5,-311.25 215.5,-329.25 377.5,-329.25 377.5,-311.25 215.5,-311.25"/>
          <polygon fill="none" stroke="black" points="215.5,-311.25 215.5,-329.25 377.5,-329.25 377.5,-311.25 215.5,-311.25"/>
          <text text-anchor="start" x="226" y="-314.85" font-family="Roboto" font-size="12.00" fill="white">WorkInstancesAssociation</text>
          <polygon fill="#bbdefb" stroke="none" points="215.5,-293.25 215.5,-311.25 290.5,-311.25 290.5,-293.25 215.5,-293.25"/>
          <polygon fill="none" stroke="black" points="215.5,-293.25 215.5,-311.25 290.5,-311.25 290.5,-293.25 215.5,-293.25"/>
          <text text-anchor="start" x="248.12" y="-296.85" font-family="Roboto" font-size="12.00">id</text>
          <polygon fill="#bbdefb" stroke="none" points="290.5,-293.25 290.5,-311.25 377.5,-311.25 377.5,-293.25 290.5,-293.25"/>
          <polygon fill="none" stroke="black" points="290.5,-293.25 290.5,-311.25 377.5,-311.25 377.5,-293.25 290.5,-293.25"/>
          <text text-anchor="start" x="293.5" y="-296.85" font-family="Roboto" font-size="12.00">INTEGER (PK)</text>
          <polygon fill="#bbdefb" stroke="none" points="215.5,-275.25 215.5,-293.25 290.5,-293.25 290.5,-275.25 215.5,-275.25"/>
          <polygon fill="none" stroke="black" points="215.5,-275.25 215.5,-293.25 290.5,-293.25 290.5,-275.25 215.5,-275.25"/>
          <text text-anchor="start" x="218.5" y="-278.85" font-family="Roboto" font-size="12.00">is_part_of_id</text>
          <polygon fill="#bbdefb" stroke="none" points="290.5,-275.25 290.5,-293.25 377.5,-293.25 377.5,-275.25 290.5,-275.25"/>
          <polygon fill="none" stroke="black" points="290.5,-275.25 290.5,-293.25 377.5,-293.25 377.5,-275.25 290.5,-275.25"/>
          <text text-anchor="start" x="301.75" y="-278.85" font-family="Roboto" font-size="12.00">INTEGER ()</text>
          <polygon fill="#bbdefb" stroke="none" points="215.5,-257.25 215.5,-275.25 290.5,-275.25 290.5,-257.25 215.5,-257.25"/>
          <polygon fill="none" stroke="black" points="215.5,-257.25 215.5,-275.25 290.5,-275.25 290.5,-257.25 215.5,-257.25"/>
          <text text-anchor="start" x="235" y="-260.85" font-family="Roboto" font-size="12.00">has_id</text>
          <polygon fill="#bbdefb" stroke="none" points="290.5,-257.25 290.5,-275.25 377.5,-275.25 377.5,-257.25 290.5,-257.25"/>
          <polygon fill="none" stroke="black" points="290.5,-257.25 290.5,-275.25 377.5,-275.25 377.5,-257.25 290.5,-257.25"/>
          <text text-anchor="start" x="301.75" y="-260.85" font-family="Roboto" font-size="12.00">INTEGER ()</text>
        </a>
      </g>
    </g>
  </g>
</svg>
